<svg width="126" height="117" viewBox="0 0 126 117" fill="none" xmlns="http://www.w3.org/2000/svg">
<path d="M7.6399 100.242V101.278H3.3979V104.568H6.8419V105.604H3.3979V110H2.1239V100.242H7.6399ZM8.70259 106.136C8.70259 105.352 8.86125 104.666 9.17859 104.078C9.49592 103.481 9.92992 103.019 10.4806 102.692C11.0406 102.365 11.6613 102.202 12.3426 102.202C13.0146 102.202 13.5979 102.347 14.0926 102.636C14.5873 102.925 14.9559 103.289 15.1986 103.728V102.328H16.4866V110H15.1986V108.572C14.9466 109.02 14.5686 109.393 14.0646 109.692C13.5699 109.981 12.9913 110.126 12.3286 110.126C11.6473 110.126 11.0313 109.958 10.4806 109.622C9.92992 109.286 9.49592 108.815 9.17859 108.208C8.86125 107.601 8.70259 106.911 8.70259 106.136ZM15.1986 106.15C15.1986 105.571 15.0819 105.067 14.8486 104.638C14.6153 104.209 14.2979 103.882 13.8966 103.658C13.5046 103.425 13.0706 103.308 12.5946 103.308C12.1186 103.308 11.6846 103.42 11.2926 103.644C10.9006 103.868 10.5879 104.195 10.3546 104.624C10.1213 105.053 10.0046 105.557 10.0046 106.136C10.0046 106.724 10.1213 107.237 10.3546 107.676C10.5879 108.105 10.9006 108.437 11.2926 108.67C11.6846 108.894 12.1186 109.006 12.5946 109.006C13.0706 109.006 13.5046 108.894 13.8966 108.67C14.2979 108.437 14.6153 108.105 14.8486 107.676C15.0819 107.237 15.1986 106.729 15.1986 106.15ZM21.3555 110.126C20.7675 110.126 20.2402 110.028 19.7735 109.832C19.3069 109.627 18.9382 109.347 18.6675 108.992C18.3969 108.628 18.2475 108.213 18.2195 107.746H19.5355C19.5729 108.129 19.7502 108.441 20.0675 108.684C20.3942 108.927 20.8189 109.048 21.3415 109.048C21.8269 109.048 22.2095 108.941 22.4895 108.726C22.7695 108.511 22.9095 108.241 22.9095 107.914C22.9095 107.578 22.7602 107.331 22.4615 107.172C22.1629 107.004 21.7009 106.841 21.0755 106.682C20.5062 106.533 20.0395 106.383 19.6755 106.234C19.3209 106.075 19.0129 105.847 18.7515 105.548C18.4995 105.24 18.3735 104.839 18.3735 104.344C18.3735 103.952 18.4902 103.593 18.7235 103.266C18.9569 102.939 19.2882 102.683 19.7175 102.496C20.1469 102.3 20.6369 102.202 21.1875 102.202C22.0369 102.202 22.7229 102.417 23.2455 102.846C23.7682 103.275 24.0482 103.863 24.0855 104.61H22.8115C22.7835 104.209 22.6202 103.887 22.3215 103.644C22.0322 103.401 21.6402 103.28 21.1455 103.28C20.6882 103.28 20.3242 103.378 20.0535 103.574C19.7829 103.77 19.6475 104.027 19.6475 104.344C19.6475 104.596 19.7269 104.806 19.8855 104.974C20.0535 105.133 20.2589 105.263 20.5015 105.366C20.7535 105.459 21.0989 105.567 21.5375 105.688C22.0882 105.837 22.5362 105.987 22.8815 106.136C23.2269 106.276 23.5209 106.491 23.7635 106.78C24.0155 107.069 24.1462 107.447 24.1555 107.914C24.1555 108.334 24.0389 108.712 23.8055 109.048C23.5722 109.384 23.2409 109.65 22.8115 109.846C22.3915 110.033 21.9062 110.126 21.3555 110.126ZM29.762 102.188C30.3406 102.188 30.8633 102.314 31.33 102.566C31.7966 102.809 32.1606 103.177 32.422 103.672C32.6926 104.167 32.828 104.769 32.828 105.478V110H31.568V105.66C31.568 104.895 31.3766 104.311 30.994 103.91C30.6113 103.499 30.0886 103.294 29.426 103.294C28.754 103.294 28.2173 103.504 27.816 103.924C27.424 104.344 27.228 104.955 27.228 105.758V110H25.954V99.64H27.228V103.42C27.48 103.028 27.8253 102.725 28.264 102.51C28.712 102.295 29.2113 102.188 29.762 102.188ZM35.5671 101.082C35.3244 101.082 35.1191 100.998 34.9511 100.83C34.7831 100.662 34.6991 100.457 34.6991 100.214C34.6991 99.9713 34.7831 99.766 34.9511 99.598C35.1191 99.43 35.3244 99.346 35.5671 99.346C35.8004 99.346 35.9964 99.43 36.1551 99.598C36.3231 99.766 36.4071 99.9713 36.4071 100.214C36.4071 100.457 36.3231 100.662 36.1551 100.83C35.9964 100.998 35.8004 101.082 35.5671 101.082ZM36.1831 102.328V110H34.9091V102.328H36.1831ZM41.7004 110.126C40.9817 110.126 40.3284 109.963 39.7404 109.636C39.1617 109.309 38.7044 108.847 38.3684 108.25C38.0417 107.643 37.8784 106.943 37.8784 106.15C37.8784 105.366 38.0464 104.675 38.3824 104.078C38.7277 103.471 39.1944 103.009 39.7824 102.692C40.3704 102.365 41.0284 102.202 41.7564 102.202C42.4844 102.202 43.1424 102.365 43.7304 102.692C44.3184 103.009 44.7804 103.467 45.1164 104.064C45.4617 104.661 45.6344 105.357 45.6344 106.15C45.6344 106.943 45.457 107.643 45.1024 108.25C44.757 108.847 44.2857 109.309 43.6884 109.636C43.091 109.963 42.4284 110.126 41.7004 110.126ZM41.7004 109.006C42.1577 109.006 42.587 108.899 42.9884 108.684C43.3897 108.469 43.7117 108.147 43.9544 107.718C44.2064 107.289 44.3324 106.766 44.3324 106.15C44.3324 105.534 44.211 105.011 43.9684 104.582C43.7257 104.153 43.4084 103.835 43.0164 103.63C42.6244 103.415 42.1997 103.308 41.7424 103.308C41.2757 103.308 40.8464 103.415 40.4544 103.63C40.0717 103.835 39.7637 104.153 39.5304 104.582C39.297 105.011 39.1804 105.534 39.1804 106.15C39.1804 106.775 39.2924 107.303 39.5164 107.732C39.7497 108.161 40.0577 108.483 40.4404 108.698C40.823 108.903 41.243 109.006 41.7004 109.006ZM51.0474 102.188C51.9808 102.188 52.7368 102.473 53.3154 103.042C53.8941 103.602 54.1834 104.414 54.1834 105.478V110H52.9234V105.66C52.9234 104.895 52.7321 104.311 52.3494 103.91C51.9668 103.499 51.4441 103.294 50.7814 103.294C50.1094 103.294 49.5728 103.504 49.1714 103.924C48.7794 104.344 48.5834 104.955 48.5834 105.758V110H47.3094V102.328H48.5834V103.42C48.8354 103.028 49.1761 102.725 49.6054 102.51C50.0441 102.295 50.5248 102.188 51.0474 102.188ZM59.5209 105.114C59.5209 104.162 59.7356 103.308 60.1649 102.552C60.5943 101.787 61.1776 101.189 61.9149 100.76C62.6616 100.331 63.4876 100.116 64.3929 100.116C65.4569 100.116 66.3856 100.373 67.1789 100.886C67.9723 101.399 68.5509 102.127 68.9149 103.07H67.3889C67.1183 102.482 66.7263 102.029 66.2129 101.712C65.7089 101.395 65.1023 101.236 64.3929 101.236C63.7116 101.236 63.1003 101.395 62.5589 101.712C62.0176 102.029 61.5929 102.482 61.2849 103.07C60.9769 103.649 60.8229 104.33 60.8229 105.114C60.8229 105.889 60.9769 106.57 61.2849 107.158C61.5929 107.737 62.0176 108.185 62.5589 108.502C63.1003 108.819 63.7116 108.978 64.3929 108.978C65.1023 108.978 65.7089 108.824 66.2129 108.516C66.7263 108.199 67.1183 107.746 67.3889 107.158H68.9149C68.5509 108.091 67.9723 108.815 67.1789 109.328C66.3856 109.832 65.4569 110.084 64.3929 110.084C63.4876 110.084 62.6616 109.874 61.9149 109.454C61.1776 109.025 60.5943 108.432 60.1649 107.676C59.7356 106.92 59.5209 106.066 59.5209 105.114ZM74.1574 110.126C73.4387 110.126 72.7854 109.963 72.1974 109.636C71.6187 109.309 71.1614 108.847 70.8254 108.25C70.4987 107.643 70.3354 106.943 70.3354 106.15C70.3354 105.366 70.5034 104.675 70.8394 104.078C71.1847 103.471 71.6514 103.009 72.2394 102.692C72.8274 102.365 73.4854 102.202 74.2134 102.202C74.9414 102.202 75.5994 102.365 76.1874 102.692C76.7754 103.009 77.2374 103.467 77.5734 104.064C77.9187 104.661 78.0914 105.357 78.0914 106.15C78.0914 106.943 77.9141 107.643 77.5594 108.25C77.2141 108.847 76.7427 109.309 76.1454 109.636C75.5481 109.963 74.8854 110.126 74.1574 110.126ZM74.1574 109.006C74.6147 109.006 75.0441 108.899 75.4454 108.684C75.8467 108.469 76.1687 108.147 76.4114 107.718C76.6634 107.289 76.7894 106.766 76.7894 106.15C76.7894 105.534 76.6681 105.011 76.4254 104.582C76.1827 104.153 75.8654 103.835 75.4734 103.63C75.0814 103.415 74.6567 103.308 74.1994 103.308C73.7327 103.308 73.3034 103.415 72.9114 103.63C72.5287 103.835 72.2207 104.153 71.9874 104.582C71.7541 105.011 71.6374 105.534 71.6374 106.15C71.6374 106.775 71.7494 107.303 71.9734 107.732C72.2067 108.161 72.5147 108.483 72.8974 108.698C73.2801 108.903 73.7001 109.006 74.1574 109.006ZM81.0405 99.64V110H79.7665V99.64H81.0405ZM83.8698 101.082C83.6271 101.082 83.4218 100.998 83.2538 100.83C83.0858 100.662 83.0018 100.457 83.0018 100.214C83.0018 99.9713 83.0858 99.766 83.2538 99.598C83.4218 99.43 83.6271 99.346 83.8698 99.346C84.1031 99.346 84.2991 99.43 84.4578 99.598C84.6258 99.766 84.7098 99.9713 84.7098 100.214C84.7098 100.457 84.6258 100.662 84.4578 100.83C84.2991 100.998 84.1031 101.082 83.8698 101.082ZM84.4858 102.328V110H83.2118V102.328H84.4858ZM89.3731 110.126C88.7851 110.126 88.2578 110.028 87.7911 109.832C87.3244 109.627 86.9558 109.347 86.6851 108.992C86.4144 108.628 86.2651 108.213 86.2371 107.746H87.5531C87.5904 108.129 87.7678 108.441 88.0851 108.684C88.4118 108.927 88.8364 109.048 89.3591 109.048C89.8444 109.048 90.2271 108.941 90.5071 108.726C90.7871 108.511 90.9271 108.241 90.9271 107.914C90.9271 107.578 90.7778 107.331 90.4791 107.172C90.1804 107.004 89.7184 106.841 89.0931 106.682C88.5238 106.533 88.0571 106.383 87.6931 106.234C87.3384 106.075 87.0304 105.847 86.7691 105.548C86.5171 105.24 86.3911 104.839 86.3911 104.344C86.3911 103.952 86.5078 103.593 86.7411 103.266C86.9744 102.939 87.3058 102.683 87.7351 102.496C88.1644 102.3 88.6544 102.202 89.2051 102.202C90.0544 102.202 90.7404 102.417 91.2631 102.846C91.7858 103.275 92.0658 103.863 92.1031 104.61H90.8291C90.8011 104.209 90.6378 103.887 90.3391 103.644C90.0498 103.401 89.6578 103.28 89.1631 103.28C88.7058 103.28 88.3418 103.378 88.0711 103.574C87.8004 103.77 87.6651 104.027 87.6651 104.344C87.6651 104.596 87.7444 104.806 87.9031 104.974C88.0711 105.133 88.2764 105.263 88.5191 105.366C88.7711 105.459 89.1164 105.567 89.5551 105.688C90.1058 105.837 90.5538 105.987 90.8991 106.136C91.2444 106.276 91.5384 106.491 91.7811 106.78C92.0331 107.069 92.1638 107.447 92.1731 107.914C92.1731 108.334 92.0564 108.712 91.8231 109.048C91.5898 109.384 91.2584 109.65 90.8291 109.846C90.4091 110.033 89.9238 110.126 89.3731 110.126ZM100.972 105.87C100.972 106.113 100.958 106.369 100.93 106.64H94.7976C94.8442 107.396 95.1009 107.989 95.5676 108.418C96.0436 108.838 96.6176 109.048 97.2896 109.048C97.8402 109.048 98.2976 108.922 98.6616 108.67C99.0349 108.409 99.2962 108.063 99.4456 107.634H100.818C100.612 108.371 100.202 108.973 99.5856 109.44C98.9696 109.897 98.2042 110.126 97.2896 110.126C96.5616 110.126 95.9082 109.963 95.3296 109.636C94.7602 109.309 94.3122 108.847 93.9856 108.25C93.6589 107.643 93.4956 106.943 93.4956 106.15C93.4956 105.357 93.6542 104.661 93.9716 104.064C94.2889 103.467 94.7322 103.009 95.3016 102.692C95.8802 102.365 96.5429 102.202 97.2896 102.202C98.0176 102.202 98.6616 102.361 99.2216 102.678C99.7816 102.995 100.211 103.434 100.51 103.994C100.818 104.545 100.972 105.17 100.972 105.87ZM99.6556 105.604C99.6556 105.119 99.5482 104.703 99.3336 104.358C99.1189 104.003 98.8249 103.737 98.4516 103.56C98.0876 103.373 97.6816 103.28 97.2336 103.28C96.5896 103.28 96.0389 103.485 95.5816 103.896C95.1336 104.307 94.8769 104.876 94.8116 105.604H99.6556ZM109.457 102.328V110H108.183V108.866C107.941 109.258 107.6 109.566 107.161 109.79C106.732 110.005 106.256 110.112 105.733 110.112C105.136 110.112 104.599 109.991 104.123 109.748C103.647 109.496 103.269 109.123 102.989 108.628C102.719 108.133 102.583 107.531 102.583 106.822V102.328H103.843V106.654C103.843 107.41 104.035 107.993 104.417 108.404C104.8 108.805 105.323 109.006 105.985 109.006C106.667 109.006 107.203 108.796 107.595 108.376C107.987 107.956 108.183 107.345 108.183 106.542V102.328H109.457ZM120.834 102.188C121.432 102.188 121.964 102.314 122.43 102.566C122.897 102.809 123.266 103.177 123.536 103.672C123.807 104.167 123.942 104.769 123.942 105.478V110H122.682V105.66C122.682 104.895 122.491 104.311 122.108 103.91C121.735 103.499 121.226 103.294 120.582 103.294C119.92 103.294 119.392 103.509 119 103.938C118.608 104.358 118.412 104.969 118.412 105.772V110H117.152V105.66C117.152 104.895 116.961 104.311 116.578 103.91C116.205 103.499 115.696 103.294 115.052 103.294C114.39 103.294 113.862 103.509 113.47 103.938C113.078 104.358 112.882 104.969 112.882 105.772V110H111.608V102.328H112.882V103.434C113.134 103.033 113.47 102.725 113.89 102.51C114.32 102.295 114.791 102.188 115.304 102.188C115.948 102.188 116.518 102.333 117.012 102.622C117.507 102.911 117.876 103.336 118.118 103.896C118.333 103.355 118.688 102.935 119.182 102.636C119.677 102.337 120.228 102.188 120.834 102.188Z" fill="#F5F5F5"/>
<g filter="url(#filter0_d_4496_4)">
<path fill-rule="evenodd" clip-rule="evenodd" d="M60 4.57764e-05C72.8238 0.976471 99.0572 10.233 101.401 39.4478C95.0864 43.8743 78.0445 52.4929 60.3906 50.7744L60 4.57764e-05Z" fill="#F71D0C"/>
</g>
<g filter="url(#filter1_d_4496_4)">
<path fill-rule="evenodd" clip-rule="evenodd" d="M59.4999 84.1438C46.6743 83.1923 20.4229 73.987 18.0225 44.7768C24.3281 40.338 41.3532 31.6862 59.0104 33.3703L59.4999 84.1438Z" fill="#F71D0C"/>
</g>
<path d="M20.9375 53V30.6562H24.6094L32.8125 49.2969L40.8594 30.6562H44.375V53H41.7969V34.6719L33.8594 53H31.5781L23.5156 34.6719V53H20.9375ZM51.9531 41.7656C51.9531 47.7969 54.6771 50.8125 60.125 50.8125C65.4583 50.8125 68.125 47.7969 68.125 41.7656C68.125 35.8177 65.4583 32.8438 60.125 32.8438C54.6771 32.8438 51.9531 35.8177 51.9531 41.7656ZM48.9062 41.8594C48.9062 34.2865 52.6458 30.5 60.125 30.5C67.4896 30.5 71.1719 34.2865 71.1719 41.8594C71.1719 49.3906 67.4896 53.1562 60.125 53.1562C52.6458 53.1562 48.9062 49.3906 48.9062 41.8594ZM77.9844 41.7656C77.9844 47.7969 80.7083 50.8125 86.1562 50.8125C91.4896 50.8125 94.1562 47.7969 94.1562 41.7656C94.1562 35.8177 91.4896 32.8438 86.1562 32.8438C80.7083 32.8438 77.9844 35.8177 77.9844 41.7656ZM74.9375 41.8594C74.9375 34.2865 78.6771 30.5 86.1562 30.5C93.5208 30.5 97.2031 34.2865 97.2031 41.8594C97.2031 49.3906 93.5208 53.1562 86.1562 53.1562C78.6771 53.1562 74.9375 49.3906 74.9375 41.8594ZM101.75 53V30.6562H104.641L118.312 48.6562V30.6562H121.047V53H118.156L104.484 34.8438V53H101.75Z" fill="#F5F5F5"/>
<path d="M75.4531 60.6562V63H63.7344V70.5H74.9062V72.8438H63.7344V80.6562H75.6875V83H60.8438V60.6562H75.4531ZM80.0625 83V60.6562H89.5938C93.8438 60.6562 95.9688 62.4427 95.9688 66.0156C95.9688 68.9219 93.8906 71.0729 89.7344 72.4688L97.4062 83H93.5938L86.4844 72.9531V71.0625C90.7552 70.3854 92.8906 68.7448 92.8906 66.1406C92.8906 64.0781 91.7031 63.0469 89.3281 63.0469H82.9531V83H80.0625ZM101.203 83H98.2031L107.688 60.6562H110.891L120.422 83H117.219L114.328 75.9688H106.938L107.734 73.625H113.359L109.188 63.5L101.203 83Z" fill="#F5F5F5"/>
<defs>
<filter id="filter0_d_4496_4" x="56" y="0" width="49.4006" height="58.9978" filterUnits="userSpaceOnUse" color-interpolation-filters="sRGB">
<feFlood flood-opacity="0" result="BackgroundImageFix"/>
<feColorMatrix in="SourceAlpha" type="matrix" values="0 0 0 0 0 0 0 0 0 0 0 0 0 0 0 0 0 0 127 0" result="hardAlpha"/>
<feOffset dy="4"/>
<feGaussianBlur stdDeviation="2"/>
<feComposite in2="hardAlpha" operator="out"/>
<feColorMatrix type="matrix" values="0 0 0 0 0 0 0 0 0 0 0 0 0 0 0 0 0 0 0.25 0"/>
<feBlend mode="normal" in2="BackgroundImageFix" result="effect1_dropShadow_4496_4"/>
<feBlend mode="normal" in="SourceGraphic" in2="effect1_dropShadow_4496_4" result="shape"/>
</filter>
<filter id="filter1_d_4496_4" x="14.0225" y="33.1559" width="49.4775" height="58.9879" filterUnits="userSpaceOnUse" color-interpolation-filters="sRGB">
<feFlood flood-opacity="0" result="BackgroundImageFix"/>
<feColorMatrix in="SourceAlpha" type="matrix" values="0 0 0 0 0 0 0 0 0 0 0 0 0 0 0 0 0 0 127 0" result="hardAlpha"/>
<feOffset dy="4"/>
<feGaussianBlur stdDeviation="2"/>
<feComposite in2="hardAlpha" operator="out"/>
<feColorMatrix type="matrix" values="0 0 0 0 0 0 0 0 0 0 0 0 0 0 0 0 0 0 0.25 0"/>
<feBlend mode="normal" in2="BackgroundImageFix" result="effect1_dropShadow_4496_4"/>
<feBlend mode="normal" in="SourceGraphic" in2="effect1_dropShadow_4496_4" result="shape"/>
</filter>
</defs>
</svg>
